<svg version="1.1" viewBox="0.0 0.0 671.4278215223097 263.26509186351706" fill="none" stroke="none" stroke-linecap="square" stroke-miterlimit="10" xmlns:xlink="http://www.w3.org/1999/xlink" xmlns="http://www.w3.org/2000/svg"><clipPath id="p.0"><path d="m0 0l671.4278 0l0 263.2651l-671.4278 0l0 -263.2651z" clip-rule="nonzero"/></clipPath><g clip-path="url(#p.0)"><path fill="#000000" fill-opacity="0.0" d="m0 0l671.4278 0l0 263.2651l-671.4278 0z" fill-rule="evenodd"/><path fill="#f3f3f3" d="m333.01288 3.884266l0 254.80315l-328.9134 0l0 -254.80315z" fill-rule="evenodd"/><path stroke="#000000" stroke-width="1.0" stroke-linejoin="round" stroke-linecap="butt" d="m333.01288 3.884266l0 254.80315l-328.9134 0l0 -254.80315z" fill-rule="evenodd"/><path fill="#d9d9d9" d="m666.68744 3.885582l0 254.80313l-328.91342 0l0 -254.80313z" fill-rule="evenodd"/><path stroke="#000000" stroke-width="1.0" stroke-linejoin="round" stroke-linecap="butt" d="m666.68744 3.885582l0 254.80313l-328.91342 0l0 -254.80313z" fill-rule="evenodd"/><path fill="#000000" fill-opacity="0.0" d="m168.55618 3.884266l0 254.80315" fill-rule="evenodd"/><path stroke="#000000" stroke-width="3.0" stroke-linejoin="round" stroke-linecap="butt" stroke-dasharray="8.0,6.0" d="m168.55618 3.884266l0 254.80315" fill-rule="evenodd"/><path fill="#000000" fill-opacity="0.0" d="m502.2307 3.885582l0 254.80313" fill-rule="evenodd"/><path stroke="#000000" stroke-width="3.0" stroke-linejoin="round" stroke-linecap="butt" stroke-dasharray="8.0,6.0" d="m502.2307 3.885582l0 254.80313" fill-rule="evenodd"/><path fill="#000000" fill-opacity="0.0" d="m202.32808 3.8845143l97.10237 0l0 254.80313l-97.10237 0z" fill-rule="evenodd"/><path fill="#000000" d="m258.1406 92.895454l0 73.04688l13.46875 0q4.828125 0 6.875 1.859375q2.046875 1.84375 2.046875 4.84375q0 2.9375 -2.046875 4.796875q-2.046875 1.84375 -6.875 1.84375l-40.29689 0q-4.8125 0 -6.875 -1.84375q-2.046875 -1.859375 -2.046875 -4.859375q0 -2.9375 2.046875 -4.78125q2.0625 -1.859375 6.875 -1.859375l13.484375 0l0 -55.656258l-11.921875 3.109375q-2.859375 0.78125 -4.296875 0.78125q-2.53125 0 -4.390625 -2.015625q-1.859375 -2.015625 -1.859375 -4.9375q0 -2.671875 1.359375 -4.203125q1.375 -1.53125 5.734375 -2.703125l28.718765 -7.421875z" fill-rule="nonzero"/><path fill="#000000" fill-opacity="0.0" d="m546.7402 3.8845143l97.102356 0l0 254.80313l-97.102356 0z" fill-rule="evenodd"/><path fill="#000000" d="m614.78705 134.69234q5.921875 4.03125 8.84375 9.34375q2.9375 5.296875 2.9375 11.875q0 7.09375 -3.875 13.125q-3.875 6.015625 -11.234375 9.109375q-7.34375 3.09375 -19.265625 3.09375q-15.484375 0 -23.296875 -4.8125q-4.375 -2.734375 -4.375 -6.515625q0 -2.859375 1.921875 -4.84375q1.921875 -1.984375 4.65625 -1.984375q1.890625 0 3.90625 1.296875q2.875 1.953125 5.40625 2.609375q3.90625 0.90625 10.75 0.90625q11.640625 0 16.84375 -3.03125q5.21875 -3.03125 5.21875 -8.5625q0 -4.09375 -3.03125 -7.90625q-3.015625 -3.8125 -8.09375 -5.890625q-2.9375 -1.171875 -9.90625 -1.625q-3.3125 -0.203125 -5.109375 -2.046875q-1.78125 -1.859375 -1.78125 -4.59375q0 -2.875 1.953125 -4.828125q1.953125 -1.9531326 4.9375 -1.9531326q6.640625 0 7.09375 -0.0625q2.609375 -0.25 5.203125 -1.6875q2.609375 -1.4375 4.203125 -3.9375q1.609375 -2.515625 1.609375 -5.171875q0 -4.234375 -3.75 -7.328125q-3.75 -3.09375 -11.234375 -3.09375q-9.625 0 -14.703125 5.59375q-1.5 1.625 -2.421875 2.09375q-1.359375 0.703125 -3.046875 0.703125q-2.734375 0 -4.6875 -1.9375q-1.953125 -1.953125 -1.953125 -4.828125q0 -4.484375 5.984375 -8.71875q8.71875 -6.1875 21.8125 -6.1875q12.359375 0 19.84375 7.03125q7.5 7.03125 7.5 16.921875q0 5.140625 -2.21875 9.609375q-2.21875 4.4531326 -6.640625 8.234383z" fill-rule="nonzero"/><path fill="#000000" fill-opacity="0.0" d="m371.1601 3.8845143l97.10239 0l0 254.80313l-97.10239 0z" fill-rule="evenodd"/><path fill="#000000" d="m407.69135 165.94234l29.234375 0q2.40625 -1.953125 4.5625 -1.953125q3.0625 0 4.84375 2.015625q1.796875 2.015625 1.796875 6.90625l0 6.375l-60.8125 0l0 -14.125q36.078125 -29.75 43.5625 -38.281258q3.765625 -4.359375 3.765625 -8.265625q0 -4.890625 -4.265625 -8.625q-4.25 -3.75 -11.359375 -3.75q-7.15625 0 -11.90625 4.171875q-2.46875 2.203125 -3.96875 6.578125q-0.921875 2.734375 -2.515625 3.90625q-1.59375 1.171875 -3.9375 1.171875q-2.734375 0 -4.71875 -1.953125q-1.984375 -1.953125 -1.984375 -4.5625q0 -3.90625 3.609375 -9.765625q3.625 -5.859375 10.546875 -9.375q6.9375 -3.515625 15.078125 -3.515625q12.625 0 20.6875 7.65625q8.078125 7.640625 8.078125 18.515625q0 5.53125 -2.3125 10.250008q-2.296875 4.71875 -11.09375 13.0625q-6.890625 6.5625 -26.890625 23.5625z" fill-rule="nonzero"/><path fill="#000000" fill-opacity="0.0" d="m44.013123 3.8845143l97.102356 0l0 254.80313l-97.102356 0z" fill-rule="evenodd"/><path fill="#000000" d="m112.57562 95.051704l0 52.203133q4.234375 0 6.25 1.859375q2.015625 1.859375 2.015625 4.78125q0 2.9375 -2.046875 4.828125q-2.046875 1.875 -6.21875 1.875l0 5.34375q4.234375 0 6.25 1.890625q2.015625 1.890625 2.015625 4.8125q0 2.9375 -2.046875 4.796875q-2.046875 1.84375 -6.859375 1.84375l-17.90625 0q-4.8125 0 -6.875 -1.84375q-2.046875 -1.859375 -2.046875 -4.859375q0 -2.9375 2.046875 -4.78125q2.0625 -1.859375 6.875 -1.859375l5.203125 0l0 -5.34375l-36.265625 0l0 -11.125l31.96875 -54.421883l17.640625 0zm-13.34375 52.203133l0 -32.812508l-19.328125 32.812508l19.328125 0z" fill-rule="nonzero"/></g></svg>