<svg version="1.1" viewBox="0.0 0.0 525.2624671916011 340.0" fill="none" stroke="none" stroke-linecap="square" stroke-miterlimit="10" xmlns:xlink="http://www.w3.org/1999/xlink" xmlns="http://www.w3.org/2000/svg"><clipPath id="p.0"><path d="m0 0l525.26245 0l0 340.0l-525.26245 0l0 -340.0z" clip-rule="nonzero"/></clipPath><g clip-path="url(#p.0)"><path fill="#000000" fill-opacity="0.0" d="m0 0l525.26245 0l0 340.0l-525.26245 0z" fill-rule="evenodd"/><path fill="#f3f3f3" d="m4.2326894 4.806184l254.80313 0l0 328.9134l-254.80313 0z" fill-rule="evenodd"/><path stroke="#000000" stroke-width="1.0" stroke-linejoin="round" stroke-linecap="butt" d="m4.2326894 4.806184l254.80313 0l0 328.9134l-254.80313 0z" fill-rule="evenodd"/><path fill="#d9d9d9" d="m265.4466 4.806184l254.80316 0l0 328.9134l-254.80316 0z" fill-rule="evenodd"/><path stroke="#000000" stroke-width="1.0" stroke-linejoin="round" stroke-linecap="butt" d="m265.4466 4.806184l254.80316 0l0 328.9134l-254.80316 0z" fill-rule="evenodd"/><path fill="#000000" fill-opacity="0.0" d="m4.2326894 169.26288l254.80313 0" fill-rule="evenodd"/><path stroke="#000000" stroke-width="3.0" stroke-linejoin="round" stroke-linecap="butt" stroke-dasharray="8.0,6.0" d="m4.2326894 169.26288l254.80313 0" fill-rule="evenodd"/><path fill="#000000" fill-opacity="0.0" d="m265.4466 169.26288l254.80316 0" fill-rule="evenodd"/><path stroke="#000000" stroke-width="3.0" stroke-linejoin="round" stroke-linecap="butt" stroke-dasharray="8.0,6.0" d="m265.4466 169.26288l254.80316 0" fill-rule="evenodd"/><path fill="#000000" fill-opacity="0.0" d="m406.6168 169.26247l97.102356 0l0 164.47243l-97.102356 0z" fill-rule="evenodd"/><path fill="#000000" d="m462.4293 213.10805l0 73.04689l13.46875 0q4.828125 0 6.875 1.859375q2.046875 1.84375 2.046875 4.84375q0 2.9375 -2.046875 4.796875q-2.046875 1.84375 -6.875 1.84375l-40.296875 0q-4.8125 0 -6.875 -1.84375q-2.046875 -1.859375 -2.046875 -4.859375q0 -2.9375 2.046875 -4.78125q2.0625 -1.859375 6.875 -1.859375l13.484375 0l0 -55.656265l-11.921875 3.109375q-2.859375 0.78125 -4.296875 0.78125q-2.53125 0 -4.390625 -2.015625q-1.859375 -2.015625 -1.859375 -4.9375q0 -2.671875 1.359375 -4.203125q1.375 -1.53125 5.734375 -2.703125l28.71875 -7.421875z" fill-rule="nonzero"/><path fill="#000000" fill-opacity="0.0" d="m131.63426 4.806184l0 328.9134" fill-rule="evenodd"/><path stroke="#000000" stroke-width="1.0" stroke-linejoin="round" stroke-linecap="butt" stroke-dasharray="8.0,6.0" d="m131.63426 4.806184l0 328.9134" fill-rule="evenodd"/><path fill="#000000" fill-opacity="0.0" d="m392.84818 4.806184l0 328.9134" fill-rule="evenodd"/><path stroke="#000000" stroke-width="1.0" stroke-linejoin="round" stroke-linecap="butt" stroke-dasharray="8.0,6.0" d="m392.84818 4.806184l0 328.9134" fill-rule="evenodd"/><path fill="#000000" fill-opacity="0.0" d="m16.860893 169.26247l97.10236 0l0 164.47243l-97.10236 0z" fill-rule="evenodd"/><path fill="#000000" d="m53.392143 286.15494l29.234375 0q2.40625 -1.953125 4.5625 -1.953125q3.0625 0 4.84375 2.015625q1.796875 2.015625 1.796875 6.90625l0 6.375l-60.8125 0l0 -14.125q36.078125 -29.750015 43.5625 -38.281265q3.765625 -4.359375 3.765625 -8.265625q0 -4.890625 -4.265625 -8.625q-4.25 -3.75 -11.359375 -3.75q-7.15625 0 -11.90625 4.171875q-2.46875 2.203125 -3.96875 6.578125q-0.921875 2.734375 -2.515625 3.90625q-1.59375 1.171875 -3.9375 1.171875q-2.734375 0 -4.71875 -1.953125q-1.984375 -1.953125 -1.984375 -4.5625q0 -3.90625 3.609375 -9.765625q3.625 -5.859375 10.546875 -9.375q6.9375 -3.515625 15.078125 -3.515625q12.625 0 20.6875 7.65625q8.078125 7.640625 8.078125 18.515625q0 5.53125 -2.3125 10.25q-2.296875 4.71875 -11.09375 13.062515q-6.890625 6.5625 -26.890625 23.5625z" fill-rule="nonzero"/><path fill="#000000" fill-opacity="0.0" d="m503.71915 169.27821l-97.102356 0l0 -164.47244l97.102356 0z" fill-rule="evenodd"/><path fill="#000000" d="m435.15665 123.27638l0 -52.203125q-4.234375 0 -6.25 -1.859375q-2.015625 -1.859375 -2.015625 -4.78125q0 -2.9375 2.046875 -4.828125q2.046875 -1.875 6.21875 -1.875l0 -5.34375q-4.234375 0 -6.25 -1.890625q-2.015625 -1.890625 -2.015625 -4.8125q0 -2.9375 2.046875 -4.796875q2.046875 -1.84375 6.859375 -1.84375l17.90625 0q4.8125 0 6.875 1.84375q2.046875 1.859375 2.046875 4.859375q0 2.9375 -2.046875 4.78125q-2.0625 1.859375 -6.875 1.859375l-5.203125 0l0 5.34375l36.265625 0l0 11.125l-31.96875 54.421875l-17.640625 0zm13.34375 -52.203125l0 32.8125l19.328125 -32.8125l-19.328125 0z" fill-rule="nonzero"/><path fill="#000000" fill-opacity="0.0" d="m117.561676 169.27821l-97.102356 0l0 -164.47244l97.102356 0z" fill-rule="evenodd"/><path fill="#000000" d="m49.514805 83.63576q-5.921875 -4.03125 -8.84375 -9.34375q-2.9375 -5.296875 -2.9375 -11.875q0 -7.09375 3.875 -13.125q3.875 -6.015625 11.234375 -9.109375q7.34375 -3.09375 19.265621 -3.09375q15.484375 0 23.296875 4.8125q4.375 2.734375 4.375 6.515625q0 2.859375 -1.921875 4.84375q-1.921875 1.984375 -4.65625 1.984375q-1.890625 0 -3.90625 -1.296875q-2.875 -1.953125 -5.40625 -2.609375q-3.90625 -0.90625 -10.75 -0.90625q-11.640621 0 -16.843746 3.03125q-5.21875 3.03125 -5.21875 8.5625q0 4.09375 3.03125 7.90625q3.015625 3.8125 8.09375 5.890625q2.9374962 1.171875 9.906246 1.625q3.3125 0.203125 5.109375 2.046875q1.78125 1.859375 1.78125 4.59375q0 2.875 -1.953125 4.828125q-1.953125 1.953125 -4.9375 1.953125q-6.640625 0 -7.09375 0.0625q-2.6093712 0.25 -5.203121 1.6875q-2.609375 1.4375 -4.203125 3.9375q-1.609375 2.515625 -1.609375 5.171875q0 4.234375 3.75 7.328125q3.75 3.09375 11.234371 3.09375q9.625 0 14.703125 -5.59375q1.5 -1.625 2.421875 -2.09375q1.359375 -0.703125 3.046875 -0.703125q2.734375 0 4.6875 1.9375q1.953125 1.953125 1.953125 4.828125q0 4.484375 -5.984375 8.71875q-8.71875 6.1875 -21.8125 6.1875q-12.359371 0 -19.843746 -7.03125q-7.5 -7.03125 -7.5 -16.921875q0 -5.140625 2.21875 -9.609375q2.21875 -4.453125 6.640625 -8.234375z" fill-rule="nonzero"/><path fill="#000000" fill-opacity="0.0" d="m381.37796 169.27821l-97.102356 0l0 -164.47244l97.102356 0z" fill-rule="evenodd"/><path fill="#000000" d="m343.5967 109.93263l0 -15.875q-7.421875 2.34375 -13.46875 2.34375q-12.3125 0 -20.4375 -8.40625q-8.140625 -8.390625 -8.140625 -21.671875q0 -13.671875 8.234375 -21.453125q8.234375 -7.78125 25.21875 -7.78125q14.984375 0 23.703125 5.65625q5.078125 3.265625 5.078125 7.5q0 2.65625 -1.984375 4.640625q-1.984375 2.0 -4.71875 2.0q-2.28125 0 -4.953125 -2.1875q-2.671875 -2.1875 -5.59375 -3.03125q-4.171875 -1.234375 -10.671875 -1.234375q-12.109375 0 -16.53125 3.875q-4.4375 3.875 -4.4375 11.875q0 7.890625 4.265625 12.375q4.265625 4.5 10.96875 4.5q7.21875 0 16.46875 -4.6875q2.078125 -1.109375 3.640625 -1.109375q2.875 0 4.796875 2.078125q1.921875 2.078125 1.921875 5.40625l0 38.53125l-40.828125 0q-4.8125 0 -6.859375 -1.859375q-2.0625 -1.84375 -2.0625 -4.84375q0 -2.921875 2.0625 -4.78125q2.046875 -1.859375 6.859375 -1.859375l27.46875 0z" fill-rule="nonzero"/><path fill="#000000" fill-opacity="0.0" d="m247.09186 169.27821l-97.102356 0l0 -164.47244l97.102356 0z" fill-rule="evenodd"/><path fill="#000000" d="m210.62311 84.62013q-4.828125 4.03125 -9.1875 5.875q-4.359375 1.859375 -9.3125 1.859375q-10.46875 0 -18.34375 -8.328125q-7.890625 -8.328125 -7.890625 -20.890625q0 -11.65625 7.328125 -18.859375q7.328125 -7.1875 19.890625 -7.1875q10.484375 0 17.25 4.875q6.765625 4.890625 10.21875 15.046875q3.453125 10.15625 3.453125 22.65625q0 14.96875 -6.828125 24.890625q-6.84375 9.9375 -16.078125 15.40625q-9.25 5.46875 -19.546875 5.46875q-8.125 0 -12.625 -3.1875q-2.921875 -2.15625 -2.921875 -5.46875q0 -2.9375 1.953125 -4.921875q1.953125 -1.984375 4.6875 -1.984375q1.5625 0 4.484375 1.5625q1.765625 0.90625 3.390625 0.90625q6.375 0 13.21875 -3.609375q6.828125 -3.609375 11.84375 -11.09375q3.453125 -5.203125 5.015625 -13.015625zm-1.953125 -20.640625q-2.09375 -7.8125 -5.640625 -10.6875q-3.546875 -2.859375 -10.125 -2.859375q-6.5625 0 -10.109375 3.453125q-3.5625 3.453125 -3.5625 9.375q0 6.765625 4.078125 11.25q4.0625 4.5 9.140625 4.5q4.046875 0 8.640625 -3.96875q4.578125 -3.96875 7.578125 -11.0625z" fill-rule="nonzero"/><path fill="#000000" fill-opacity="0.0" d="m152.86089 169.26247l97.10237 0l0 164.47243l-97.10237 0z" fill-rule="evenodd"/><path fill="#000000" d="m215.64214 228.60805l-30.546875 0q-0.25 3.90625 -2.015625 5.625q-1.75 1.71875 -4.625 1.71875q-2.984375 0 -4.84375 -2.015625q-1.859375 -2.015625 -1.859375 -6.828125l0 -11.84375l57.9375 0l0 13.34375l-21.609375 64.312515q-1.359375 4.046875 -3.03125 5.375q-1.65625 1.328125 -4.0 1.328125q-2.796875 0 -4.78125 -1.953125q-1.984375 -1.953125 -1.984375 -4.484375q0 -1.4375 1.046875 -4.5625l20.3125 -60.01564z" fill-rule="nonzero"/><path fill="#000000" fill-opacity="0.0" d="m280.8609 169.26247l97.102356 0l0 164.47243l-97.102356 0z" fill-rule="evenodd"/><path fill="#000000" d="m348.78278 256.85806q5.140625 3.96875 7.703125 9.015625q2.578125 5.046875 2.578125 11.09375q0 6.71875 -3.296875 12.34375q-3.28125 5.625 -10.3125 8.890625q-7.03125 3.25 -15.625 3.25q-8.59375 0 -15.5 -3.25q-6.890625 -3.265625 -10.1875 -8.921875q-3.28125 -5.671875 -3.28125 -12.3125q0 -6.046875 2.5625 -11.09375q2.578125 -5.046875 7.71875 -9.015625q-4.484375 -4.1718903 -6.765625 -8.85939q-2.28125 -4.6875 -2.28125 -9.890625q0 -10.21875 7.8125 -17.609375q7.8125 -7.390625 20.0625 -7.390625q12.234375 0 20.046875 7.390625q7.8125 7.390625 7.8125 17.609375q0 5.265625 -2.25 9.953125q-2.25 4.6875 -6.796875 8.79689zm-4.625 -18.48439q0 -4.953125 -3.875 -8.4375q-3.875 -3.484375 -10.453125 -3.484375q-6.640625 0 -10.515625 3.484375q-3.875 3.484375 -3.875 8.4375q0 5.0 3.875 8.484375q3.875 3.484375 10.515625 3.484375q6.578125 0 10.453125 -3.484375q3.875 -3.484375 3.875 -8.484375zm1.5625 39.250015q0 -5.265625 -4.53125 -9.53125q-4.515625 -4.265625 -11.21875 -4.265625q-6.71875 0 -11.25 4.265625q-4.515625 4.265625 -4.515625 9.65625q0 4.171875 3.90625 7.265625q3.90625 3.09375 11.859375 3.09375q8.0 0 11.875 -3.09375q3.875 -3.09375 3.875 -7.390625z" fill-rule="nonzero"/></g></svg>